# xmcd
#
# Track frame offsets:
#	182
#	13270
#	24877
#	36095
#	47040
#	61295
#	72330
#	81795
#	90827
#	101502
#	114397
#	122175
#	133162
#	142945
#	153495
#
# Disc length: 2175 seconds
#
# Revision: 1
# Processed by: cddbd v1.5.2PL0 Copyright (c) Steve Scherf et al.
# Submitted via: EZCDAudioConverter 5.0.0.1
#
DISCID=bf087d0f
DTITLE=Willie Nelson - The Essential Collection [CD1]
DYEAR=1900
DGENRE=Country
TTITLE0=A Moment Isn't Very Long
TTITLE1=Pages
TTITLE2=I Hope So
TTITLE3=December Day
TTITLE4=Face Of A Fighter
TTITLE5=Some Other Time
TTITLE6=Healing Hand Of Time
TTITLE7=Building Heartaches
TTITLE8=Suffer In Silence
TTITLE9=Everything But You
TTITLE10=You Wouldn't Cross The Street To Say Goodbye
TTITLE11=Is There Something On Your Mind
TTITLE12=Ashamed
TTITLE13=Blame It On The Times
TTITLE14=Half A Man
EXTD=
EXTT0=
EXTT1=
EXTT2=
EXTT3=
EXTT4=
EXTT5=
EXTT6=
EXTT7=
EXTT8=
EXTT9=
EXTT10=
EXTT11=
EXTT12=
EXTT13=
EXTT14=
PLAYORDER=
